grf
version=1
nRows=36
nColumns=19
inDegrees=yes
endheader
time	ground_force_1_vx	ground_force_1_vy	ground_force_1_vz	ground_force_1_px	ground_force_1_py	ground_force_1_pz	ground_moment_1_mx	ground_moment_1_my	ground_moment_1_mz	ground_force_2_vx	ground_force_2_vy	ground_force_2_vz	ground_force_2_px	ground_force_2_py	ground_force_2_pz	ground_moment_2_mx	ground_moment_2_my	ground_moment_2_mz
1.996000	-29.395873	1622.819213	-202.239726	0.186341	0.000000	-1.025541	-0.000000	30.954701	0.000000	8.971058	1370.467201	192.868516	0.192578	0.000000	-1.432685	-0.000000	-22.138020	-0.000000
1.997000	-29.839486	1623.123642	-202.170293	0.186701	0.000000	-1.025859	-0.000000	30.979486	0.000000	8.825037	1371.388677	192.971592	0.191867	0.000000	-1.431753	-0.000000	-22.178181	-0.000000
1.998000	-30.269054	1623.478580	-202.062353	0.186282	0.000000	-1.025648	-0.000000	31.005364	0.000000	8.694746	1372.164754	193.084015	0.192727	0.000000	-1.429474	-0.000000	-22.217060	-0.000000
1.999000	-30.682337	1623.881163	-201.915918	0.186789	0.000000	-1.025412	-0.000000	31.032218	0.000000	8.580508	1372.794906	193.206215	0.191848	0.000000	-1.431695	-0.000000	-22.254567	-0.000000
2.000000	-31.077301	1624.328747	-201.731202	0.186288	0.000000	-1.026203	-0.000000	31.059910	0.000000	8.482742	1373.279172	193.338338	0.191297	0.000000	-1.432160	-0.000000	-22.290614	-0.000000
2.001000	-31.452134	1624.818657	-201.508696	0.187184	0.000000	-1.029059	-0.000000	31.088291	0.000000	8.401905	1373.619076	193.480184	0.190904	0.000000	-1.434485	-0.000000	-22.325133	-0.000000
2.002000	-31.805284	1625.347135	-201.249326	0.186481	0.000000	-1.025904	-0.000000	31.117205	0.000000	8.338320	1373.819158	193.631068	0.191782	0.000000	-1.432558	-0.000000	-22.358110	-0.000000
2.003000	-32.135499	1625.908499	-200.954562	0.186177	0.000000	-1.026352	-0.000000	31.146494	0.000000	8.292064	1373.887544	193.789744	0.191674	0.000000	-1.433024	-0.000000	-22.389593	-0.000000
2.004000	-32.441865	1626.495386	-200.626304	0.186160	0.000000	-1.027435	-0.000000	31.175997	0.000000	8.263091	1373.835000	193.954509	0.191636	0.000000	-1.431010	-0.000000	-22.419659	-0.000000
2.005000	-32.723827	1627.099288	-200.266707	0.185085	0.000000	-1.027363	-0.000000	31.205548	0.000000	8.251402	1373.673651	194.123394	0.191318	0.000000	-1.431230	-0.000000	-22.448391	-0.000000
2.006000	-32.981199	1627.710462	-199.878094	0.186121	0.000000	-1.026442	-0.000000	31.234980	0.000000	8.257062	1373.416508	194.294316	0.191992	0.000000	-1.433211	0.000000	-22.475879	-0.000000
2.007000	-33.214189	1628.317959	-199.462952	0.186235	0.000000	-1.026386	-0.000000	31.264137	0.000000	8.280134	1373.077262	194.465135	0.191427	0.000000	-1.431126	0.000000	-22.502226	-0.000000
2.008000	-33.423356	1628.910389	-199.023936	0.186203	0.000000	-1.025753	-0.000000	31.292869	0.000000	8.320633	1372.669761	194.633638	0.191514	0.000000	-1.433154	0.000000	-22.527536	-0.000000
2.009000	-33.609485	1629.476662	-198.563837	0.185965	0.000000	-1.025842	-0.000000	31.321034	0.000000	8.378556	1372.207872	194.797559	0.190933	0.000000	-1.432324	0.000000	-22.551912	-0.000000
2.010000	-33.773473	1630.006229	-198.085545	0.185721	0.000000	-1.027341	-0.000000	31.348494	0.000000	8.453917	1371.705917	194.954621	0.191755	0.000000	-1.432556	0.000000	-22.575473	-0.000000
2.011000	-33.916321	1630.489045	-197.592030	0.186232	0.000000	-1.026250	-0.000000	31.375120	0.000000	8.546712	1371.178946	195.102572	0.191712	0.000000	-1.434728	0.000000	-22.598348	-0.000000
2.012000	-34.039187	1630.915521	-197.086312	0.185915	0.000000	-1.026360	-0.000000	31.400789	0.000000	8.656879	1370.642528	195.239204	0.190701	0.000000	-1.432288	0.000000	-22.620657	-0.000000
2.013000	-34.143445	1631.276839	-196.571408	0.186094	0.000000	-1.025972	-0.000000	31.425390	0.000000	8.784261	1370.112151	195.362393	0.191283	0.000000	-1.431646	0.000000	-22.642509	-0.000000
2.014000	-34.230667	1631.565483	-196.050264	0.184951	0.000000	-1.028649	-0.000000	31.448840	0.000000	8.928578	1369.602454	195.470221	0.191663	0.000000	-1.431883	0.000000	-22.664030	-0.000000
2.015000	-34.302448	1631.775007	-195.525676	0.186198	0.000000	-1.026818	-0.000000	31.471073	0.000000	9.089395	1369.126471	195.561119	0.191546	0.000000	-1.431773	0.000000	-22.685368	-0.000000
2.016000	-34.360238	1631.899280	-195.000243	0.186132	0.000000	-1.025333	-0.000000	31.492027	0.000000	9.266122	1368.695163	195.633868	0.191129	0.000000	-1.432584	0.000000	-22.706684	-0.000000
2.017000	-34.405328	1631.932636	-194.476377	0.185836	0.000000	-1.027974	-0.000000	31.511649	0.000000	9.458009	1368.317356	195.687501	0.191888	0.000000	-1.430596	0.000000	-22.728126	-0.000000
2.018000	-34.438873	1631.870706	-193.956321	0.185531	0.000000	-1.027102	-0.000000	31.529913	0.000000	9.664115	1367.999681	195.721312	0.191452	0.000000	-1.432317	0.000000	-22.749802	-0.000000
2.019000	-34.461892	1631.710728	-193.442126	0.185643	0.000000	-1.027599	0.000000	31.546812	0.000000	9.883273	1367.746590	195.734928	0.191093	0.000000	-1.432008	0.000000	-22.771757	-0.000000
2.020000	-34.475277	1631.451270	-192.935589	0.186073	0.000000	-1.027559	0.000000	31.562346	0.000000	10.114062	1367.560870	195.728307	0.190822	0.000000	-1.432787	0.000000	-22.793974	-0.000000
2.021000	-34.479803	1631.091769	-192.438209	0.185393	0.000000	-1.027516	0.000000	31.576515	0.000000	10.354831	1367.444232	195.701719	0.190439	0.000000	-1.432983	0.000000	-22.816394	-0.000000
2.022000	-34.476087	1630.632215	-191.951219	0.185988	0.000000	-1.027470	0.000000	31.589327	0.000000	10.603756	1367.397389	195.655734	0.190525	0.000000	-1.431537	0.000000	-22.838946	-0.000000
2.023000	-34.464528	1630.073169	-191.475670	0.185877	0.000000	-1.029585	0.000000	31.600799	0.000000	10.858899	1367.419826	195.591164	0.190553	0.000000	-1.432385	0.000000	-22.861562	-0.000000
2.024000	-34.445248	1629.415856	-191.012422	0.185391	0.000000	-1.027606	0.000000	31.610945	0.000000	11.118208	1367.509864	195.508989	0.190523	0.000000	-1.432884	0.000000	-22.884172	-0.000000
2.025000	-34.418080	1628.662170	-190.562103	0.185769	0.000000	-1.027038	0.000000	31.619785	0.000000	11.379529	1367.665119	195.410335	0.190280	0.000000	-1.432201	0.000000	-22.906701	-0.000000
2.026000	-34.382645	1627.814827	-190.125136	0.186547	0.000000	-1.025993	0.000000	31.627357	0.000000	11.640636	1367.882577	195.296486	0.191098	0.000000	-1.433202	0.000000	-22.929083	-0.000000
2.027000	-34.338344	1626.877679	-189.701807	0.186270	0.000000	-1.028850	0.000000	31.633721	0.000000	11.899308	1368.157754	195.168927	0.189680	0.000000	-1.432294	0.000000	-22.951263	-0.000000
2.028000	-34.284314	1625.855571	-189.292288	0.185777	0.000000	-1.027791	0.000000	31.638942	0.000000	12.153429	1368.483982	195.029303	0.190694	0.000000	-1.431427	0.000000	-22.973209	-0.000000
2.029000	-34.219493	1624.753722	-188.896631	0.186094	0.000000	-1.026855	0.000000	31.643070	0.000000	12.401048	1368.852824	194.879325	0.190323	0.000000	-1.431666	0.000000	-22.994888	-0.000000
2.030000	-34.142756	1623.577403	-188.514798	0.185799	0.000000	-1.026955	0.000000	31.646137	0.000000	12.640348	1369.255105	194.720768	0.190767	0.000000	-1.433227	0.000000	-23.016249	-0.000000
2.031000	-34.053052	1622.331973	-188.146745	0.185032	0.000000	-1.027798	0.000000	31.648160	0.000000	12.869622	1369.681782	194.555483	0.190096	0.000000	-1.432630	0.000000	-23.037215	-0.000000
